# xmcd
#
# Track frame offsets:
# 150
# 12665
# 22784
# 32796
# 43618
# 52026
# 59729
# 72252
# 83341
# 94344
# 107142
# 115571
# 127188
# 137620
# 147184
# 157147
#
# Disc length: 2254 seconds
#
#
# Revision: 0
# Processed by: cddbd v1.4PL0 Copyright (c) Steve Scherf et al.
# Submitted via: FreeRIP 2.30 
#
DISCID=e008cc10
DTITLE=Johnny Cash - Johnny Cash
DYEAR=2003
DGENRE=Country
TTITLE0=I Walk the Line
TTITLE1=Hey Porter
TTITLE2=Rock Island Line
TTITLE3=Train of Love
TTITLE4=Guess Things Happen That Way
TTITLE5=Come in Stranger
TTITLE6=Give My Love to Rose
TTITLE7=Cry, Cry, Cry
TTITLE8=I Heard That Lonesome Whistle Blow
TTITLE9=Folsom Prison Blues
TTITLE10=Wreck of the Old 97
TTITLE11=Big River
TTITLE12=There You Go
TTITLE13=Down the Street to 301
TTITLE14=Ballad of a Teenage Queen
TTITLE15=You're the Nearest Thing to Heaven
EXTD=Classic American Voices
EXTT0=
EXTT1=
EXTT2=
EXTT3=
EXTT4=
EXTT5=
EXTT6=
EXTT7=
EXTT8=
EXTT9=
EXTT10=
EXTT11=
EXTT12=
EXTT13=
EXTT14=
EXTT15=
PLAYORDER=
